PathFileType	4	(X/Y/Z)	HSS_squat3.trc
DataRate	CameraRate	NumFrames	NumMarkers	Units	OrigDataRate	OrigDataStartFrame	OrigNumFrames
120.0	120.0	8	44	mm	120.0	122	972
Frame#	Time		R.Shoulder		Offset		L.Shoulder		R.Elbow		R.Wrist.Radial		R.Wrist		R.Hand		L.Elbow		L.Wrist.Radial		L.Wrist		L.Hand		R.Hip		V.Sacral		L.PSIS		L.Hip		R.Thigh.Upper		R.Thigh.Front		R.Thigh.Rear		X.Shell.Lower.Thigh.Right		R.Knee.Lateral		R.Shank.Upper		R.Shank.Front		R.Shank.Rear		X.Shell.Lower.Shank.Right		R.Ankle.Lateral		R.Heel		R.Toe		L.Thigh.Upper		L.Thigh.Front		L.Thigh.Rear		X.Shell.Lower.Thigh.Left		L.Knee.Lateral		L.Shank.Upper		L.Shank.Front		L.Shank.Rear		X.Shell.Lower.Shank.Left		L.Ankle.Lateral		L.Heel		L.Toe		R.Troc		L.Troc		R.PSIS		L.ASIS		R.ASIS
			X1	Y1	Z1	X2	Y2	Z2	X3	Y3	Z3	X4	Y4	Z4	X5	Y5	Z5	X6	Y6	Z6	X7	Y7	Z7	X8	Y8	Z8	X9	Y9	Z9	X10	Y10	Z10	X11	Y11	Z11	X12	Y12	Z12	X13	Y13	Z13	X14	Y14	Z14	X15	Y15	Z15	X16	Y16	Z16	X17	Y17	Z17	X18	Y18	Z18	X19	Y19	Z19	X20	Y20	Z20	X21	Y21	Z21	X22	Y22	Z22	X23	Y23	Z23	X24	Y24	Z24	X25	Y25	Z25	X26	Y26	Z26	X27	Y27	Z27	X28	Y28	Z28	X29	Y29	Z29	X30	Y30	Z30	X31	Y31	Z31	X32	Y32	Z32	X33	Y33	Z33	X34	Y34	Z34	X35	Y35	Z35	X36	Y36	Z36	X37	Y37	Z37	X38	Y38	Z38	X39	Y39	Z39	X40	Y40	Z40	X41	Y41	Z41	X42	Y42	Z42	X43	Y43	Z43	X44	Y44	Z44

122	1.00833	154.95914	1474.29321	-88.62831	-138.27562	1377.75366	20.29488	-209.81425	1490.13306	-98.90768	246.38132	1138.88464	-244.73607	55.40042	1179.78760	-421.73312	109.19283	1175.57385	-472.39691	32.20296	1188.61633	-513.69037	-302.01544	1158.56335	-257.32458	-100.94897	1171.86560	-426.35178	-157.50198	1172.68262	-470.50558	-76.87177	1173.94531	-509.68045	123.40246	1031.74792	-149.87540	-28.43566	1018.47058	-33.31004	-68.94190	1023.97595	-36.49429	-174.30989	1031.84265	-156.98744	178.52153	695.06415	-179.22087	166.66803	655.37292	-211.74765	189.77600	658.12097	-154.48055	175.69449	623.34210	-181.32556	169.94308	517.92847	-115.36470	231.16348	379.14096	-94.42880	213.68753	333.50592	-122.97813	221.18661	341.59506	-62.82997	218.24644	300.75854	-86.37517	190.14162	72.01707	-81.63283	142.63014	33.13093	-41.29985	201.36453	31.40074	-237.56274	-221.13594	694.69135	-195.57057	-203.31451	643.10034	-213.72029	-238.45642	660.78766	-164.56041	-229.32292	624.54584	-189.69743	-216.66634	509.94357	-118.72920	-274.91599	316.36188	-81.85687	-261.70209	291.06396	-110.20116	-264.18146	276.26785	-51.86204	-270.19815	245.93927	-74.74651	-241.05138	75.66961	-94.86418	-197.05215	34.58168	-41.59986	-241.28935	32.46486	-240.89749	161.11079	890.67810	-159.49837	-213.78680	900.76831	-157.65845	15.32333	1021.91443	-33.54556	-131.69003	997.08679	-222.00423	91.74307	995.01349	-211.68283
123	1.01667	154.81792	1474.39941	-88.38248	-138.20673	1377.69360	20.55088	-209.65038	1490.28320	-98.49773	247.39638	1141.04041	-247.47679	54.68331	1183.87439	-423.59155	108.95754	1180.19946	-474.38062	31.27931	1193.49048	-515.00293	-302.82886	1160.75122	-260.04654	-100.99304	1175.84058	-427.83127	-157.53706	1177.66272	-473.61557	-76.12910	1179.35229	-510.90790	123.39589	1031.72461	-149.88742	-28.41148	1018.44202	-33.31211	-68.91669	1023.95380	-36.50336	-174.35350	1031.86157	-156.91447	178.49722	695.06036	-179.30936	166.64049	655.38800	-211.82011	189.76897	658.13196	-154.53389	175.67123	623.34650	-181.40215	169.92947	517.92145	-115.42968	231.15993	379.14169	-94.46252	213.66818	333.51620	-123.03047	221.17906	341.61664	-62.86826	218.25496	300.77490	-86.43352	190.13496	72.01946	-81.63401	142.62700	33.14108	-41.29987	201.34247	31.41315	-237.60201	-221.13402	694.70117	-195.60913	-203.33348	643.11755	-213.79970	-238.46458	660.78168	-164.62604	-229.32516	624.54913	-189.73341	-216.67204	509.94501	-118.76659	-274.93387	316.35211	-81.89697	-261.70816	291.05984	-110.27073	-264.19742	276.25772	-51.90825	-270.21063	245.93091	-74.78831	-241.02879	75.64668	-94.87765	-197.04042	34.57370	-41.60804	-241.29736	32.44998	-240.93777	161.05685	890.67938	-159.55890	-213.83749	900.76520	-157.63988	15.30144	1021.86176	-33.52925	-131.74599	997.11780	-222.01338	91.72083	995.03320	-211.69203
124	1.02500	154.64224	1474.49841	-88.20396	-138.18459	1377.59143	20.78561	-209.42490	1490.37183	-98.06415	248.27267	1143.24097	-250.38409	54.88830	1187.63269	-424.98907	108.53995	1184.88538	-476.10501	30.47633	1198.37463	-516.46497	-303.53183	1162.88989	-262.64069	-100.64594	1179.99341	-429.67319	-157.12756	1182.54688	-475.32645	-75.53535	1184.72058	-512.06061	123.37201	1031.69055	-149.89764	-28.44918	1018.43073	-33.27503	-68.92612	1023.94354	-36.47664	-174.36569	1031.88074	-156.89471	178.44661	695.06561	-179.41011	166.61096	655.38458	-211.94199	189.74704	658.12628	-154.62128	175.61742	623.35846	-181.51186	169.92371	517.92352	-115.48392	231.14398	379.15549	-94.50325	213.67995	333.50830	-123.07055	221.19341	341.62848	-62.92725	218.23978	300.75488	-86.44820	190.13905	72.01463	-81.63766	142.64282	33.14542	-41.30637	201.33475	31.41157	-237.58652	-221.12946	694.70441	-195.67508	-203.34464	643.12598	-213.88097	-238.48553	660.78998	-164.68753	-229.32988	624.55255	-189.82263	-216.68335	509.94580	-118.83894	-274.93213	316.35211	-81.97836	-261.71695	291.06439	-110.32433	-264.22260	276.26230	-51.95472	-270.25165	245.94420	-74.85710	-241.03493	75.65356	-94.87887	-197.02504	34.59107	-41.62421	-241.28658	32.46049	-240.94691	160.99677	890.67987	-159.62595	-213.84274	900.78931	-157.67114	15.29980	1021.81744	-33.53242	-131.75551	997.14124	-222.01286	91.68490	995.04144	-211.76003
125	1.03333	154.46854	1474.61658	-88.00068	-138.15707	1377.56274	21.01680	-209.24013	1490.46838	-97.60049	249.31917	1145.43567	-253.06728	55.02645	1191.50146	-426.13644	108.23560	1189.44800	-477.94943	29.95395	1203.14490	-517.62268	-304.26666	1165.07312	-265.43518	-100.95882	1184.02759	-430.92612	-156.82318	1187.48999	-476.99380	-74.95296	1189.93152	-513.24817	123.36769	1031.66797	-149.88072	-28.42804	1018.40491	-33.32743	-68.94630	1023.93030	-36.47803	-174.38669	1031.89429	-156.85190	178.41632	695.05072	-179.50136	166.52710	655.38269	-212.03941	189.71852	658.11530	-154.71953	175.58798	623.32861	-181.61473	169.90150	517.93030	-115.54391	231.14336	379.15543	-94.53495	213.65294	333.50952	-123.15257	221.18449	341.63733	-62.95563	218.24829	300.76929	-86.49866	190.12241	72.02822	-81.63139	142.61867	33.14162	-41.29632	201.32672	31.39615	-237.57941	-221.13373	694.72064	-195.74098	-203.35358	643.15216	-213.91017	-238.48828	660.79803	-164.76277	-229.34048	624.56848	-189.85136	-216.69440	509.95499	-118.90591	-274.95636	316.33905	-82.08274	-261.72372	291.06284	-110.39421	-264.23822	276.28201	-52.01959	-270.29361	245.93893	-74.92739	-241.02419	75.64588	-94.90282	-197.04356	34.60260	-41.60196	-241.27985	32.45429	-240.90675	160.91350	890.67249	-159.65372	-213.87607	900.78345	-157.68155	15.29625	1021.77283	-33.54969	-131.78418	997.16266	-221.97769	91.64748	995.04492	-211.76984
126	1.04167	154.36769	1474.73047	-87.67377	-138.08333	1377.57214	21.19120	-209.05453	1490.63721	-97.19978	250.28894	1147.75024	-255.87242	54.94962	1195.43152	-428.21661	107.84401	1193.95801	-479.65991	29.34888	1207.97424	-518.85461	-304.91599	1167.29443	-267.98270	-100.42220	1188.04163	-432.63696	-156.38721	1192.15051	-478.52902	-74.48163	1195.10901	-514.45947	123.35434	1031.66040	-149.89459	-28.43633	1018.38696	-33.32099	-68.94296	1023.92572	-36.50437	-174.41965	1031.92505	-156.84840	178.41391	695.05652	-179.56966	166.50519	655.39166	-212.10837	189.69444	658.11975	-154.82683	175.54437	623.34027	-181.71307	169.91602	517.91693	-115.60637	231.13167	379.15903	-94.57419	213.63470	333.50623	-123.18312	221.18675	341.65192	-63.01797	218.25220	300.77109	-86.51720	190.12624	72.02068	-81.61861	142.62431	33.15004	-41.31254	201.33536	31.39825	-237.58263	-221.17860	694.74927	-195.80463	-203.35916	643.14227	-213.94786	-238.50276	660.79877	-164.81900	-229.34911	624.57861	-189.93297	-216.69664	509.95349	-118.97495	-274.98019	316.34109	-82.17570	-261.71756	291.04886	-110.48396	-264.26611	276.28033	-52.07013	-270.34149	245.95444	-75.00966	-241.02887	75.66422	-94.91876	-197.03542	34.59543	-41.61652	-241.26802	32.44764	-240.92331	160.86485	890.63806	-159.69122	-213.88638	900.80212	-157.69241	15.28826	1021.73999	-33.55563	-131.80292	997.18317	-222.00229	91.63647	995.05505	-211.78654
127	1.05000	154.21735	1474.91394	-87.28902	-138.03461	1377.52258	21.50209	-208.91864	1490.82996	-96.74947	251.29257	1150.10828	-258.28204	54.97004	1199.09167	-429.46494	107.77528	1198.56055	-481.40756	28.82823	1212.74377	-519.51709	-305.69205	1169.56616	-270.66470	-100.78423	1192.17053	-433.98248	-156.18930	1197.17358	-480.30594	-73.92923	1200.31360	-515.71442	123.35014	1031.65601	-149.91168	-28.44641	1018.36780	-33.31989	-68.92986	1023.91418	-36.49935	-174.44435	1031.93799	-156.81679	178.36389	695.07629	-179.65463	166.42010	655.40204	-212.22823	189.67130	658.12231	-154.89854	175.51163	623.34332	-181.77309	169.87735	517.93268	-115.66554	231.12766	379.15701	-94.59556	213.63365	333.50778	-123.24303	221.19170	341.65411	-63.06103	218.23674	300.77100	-86.54932	190.10931	72.02944	-81.62401	142.62991	33.15412	-41.29189	201.33545	31.41079	-237.59158	-221.18803	694.75928	-195.89148	-203.37000	643.16443	-214.02281	-238.52805	660.81091	-164.86440	-229.35892	624.59290	-189.99257	-216.71344	509.95645	-119.03437	-275.00403	316.33295	-82.24358	-261.72977	291.04965	-110.54860	-264.29846	276.26498	-52.15423	-270.37344	245.96086	-75.08230	-241.02292	75.67091	-94.89615	-197.02975	34.61702	-41.62356	-241.28450	32.44808	-240.94040	160.82039	890.66113	-159.72525	-213.90628	900.82483	-157.69173	15.30950	1021.70374	-33.59037	-131.85878	997.21808	-221.99615	91.60199	995.05408	-211.81454
128	1.05833	154.02333	1475.07874	-87.00446	-137.96736	1377.53308	21.76328	-208.62491	1491.04370	-96.29853	251.72992	1152.42834	-261.84830	55.68542	1203.00537	-430.84467	107.54973	1203.02515	-483.04425	28.45313	1217.78943	-520.68713	-306.43192	1171.95911	-273.28503	-100.42314	1196.09827	-435.69199	-155.80952	1201.90845	-481.92920	-73.67603	1205.37317	-516.96521	123.34766	1031.65601	-149.96739	-28.39946	1018.34357	-33.41222	-68.92642	1023.91553	-36.51095	-174.46269	1031.93201	-156.85208	178.34230	695.06470	-179.77576	166.39510	655.42426	-212.28525	189.63805	658.14703	-154.99792	175.48692	623.35065	-181.85730	169.85464	517.93256	-115.69450	231.13365	379.17062	-94.64928	213.62852	333.52151	-123.27814	221.19302	341.67160	-63.11462	218.24750	300.78113	-86.62516	190.11737	72.02759	-81.63407	142.63240	33.15686	-41.32531	201.33698	31.39732	-237.58475	-221.22202	694.76282	-195.95374	-203.38393	643.16852	-214.08597	-238.54166	660.81274	-164.96217	-229.36026	624.61456	-190.05885	-216.69917	509.95047	-119.07253	-275.03595	316.32956	-82.33811	-261.73993	291.05426	-110.60705	-264.33133	276.26447	-52.20758	-270.41269	245.96303	-75.14141	-241.00882	75.67490	-94.90807	-197.02701	34.63205	-41.62082	-241.27003	32.45443	-240.95518	160.78630	890.66003	-159.77313	-213.91174	900.81927	-157.69476	15.31257	1021.68036	-33.62062	-131.85655	997.23468	-222.01204	91.59351	995.07819	-211.85750
129	1.06667	153.88115	1475.24072	-86.80968	-137.89297	1377.50781	21.97209	-208.41277	1491.26343	-95.73495	252.54224	1154.81299	-264.46152	55.57336	1207.15454	-432.40439	107.22916	1207.44873	-484.80737	28.14962	1222.65735	-521.95050	-307.15405	1174.36890	-275.84244	-100.65643	1199.95190	-437.10754	-155.58058	1206.54431	-483.67599	-73.23409	1210.30518	-518.21948	123.34333	1031.66553	-150.01233	-28.41842	1018.35760	-33.42848	-68.94375	1023.91632	-36.51265	-174.48180	1031.94409	-156.84212	178.30597	695.08118	-179.86998	166.35368	655.41260	-212.39494	189.62833	658.13556	-155.07001	175.44159	623.33978	-181.93860	169.83191	517.92670	-115.74321	231.12047	379.17950	-94.68287	213.61853	333.51288	-123.31064	221.18320	341.66696	-63.15607	218.24828	300.77853	-86.64467	190.12296	72.03127	-81.63858	142.64574	33.15197	-41.34616	201.33910	31.40802	-237.59056	-221.21896	694.77563	-196.02489	-203.39830	643.15411	-214.14491	-238.53641	660.81262	-165.03548	-229.35678	624.60883	-190.13107	-216.71761	509.95389	-119.10132	-275.05423	316.32037	-82.40702	-261.75067	291.05750	-110.68307	-264.36548	276.29044	-52.26846	-270.45694	245.96053	-75.21263	-240.99521	75.63942	-94.95026	-197.03293	34.64547	-41.62377	-241.28226	32.45721	-240.97343	160.75961	890.64539	-159.80214	-213.92581	900.83002	-157.71077	15.33111	1021.67291	-33.65118	-131.87727	997.23029	-222.00133	91.59709	995.08179	-211.91701
